<svg xmlns="http://www.w3.org/2000/svg" width="40" height="32" viewBox="0 0 40 32" fill="none"><ellipse opacity="0.24" cx="20" cy="28" rx="20" ry="4" fill="#115CDE"></ellipse><path d="M16 7V5C16 4.46957 16.2107 3.96086 16.5858 3.58579C16.9609 3.21071 17.4696 3 18 3H22C22.5304 3 23.0391 3.21071 23.4142 3.58579C23.7893 3.96086 24 4.46957 24 5V7M20 12V12.01M11 13C13.7916 14.4067 16.874 15.1394 20 15.1394C23.126 15.1394 26.2084 14.4067 29 13M13 7H27C28.1046 7 29 7.89543 29 9V18C29 19.1046 28.1046 20 27 20H13C11.8954 20 11 19.1046 11 18V9C11 7.89543 11.8954 7 13 7Z" stroke="#115CDE" stroke-width="2" stroke-linecap="round" stroke-linejoin="round"></path></svg>