<svg xmlns="http://www.w3.org/2000/svg" width="40" height="32" viewBox="0 0 40 32" fill="none"><ellipse opacity="0.24" cx="20" cy="28" rx="20" ry="4" fill="#27D6FF"></ellipse><path d="M26 12C27.6569 12 29 10.6569 29 9V7C29 5.34315 27.6569 4 26 4H14C12.3431 4 11 5.34315 11 7V9C11 10.6569 12.3431 12 14 12M26 12H14M26 12C27.6569 12 29 13.3431 29 15V17C29 18.6569 27.6569 20 26 20H14C12.3431 20 11 18.6569 11 17V15C11 13.3431 12.3431 12 14 12M15 8V8.01M15 16V16.01" stroke="#27D6FF" stroke-width="2" stroke-linecap="round" stroke-linejoin="round"></path></svg>