<svg xmlns="http://www.w3.org/2000/svg" width="40" height="32" viewBox="0 0 40 32" fill="none"><ellipse opacity="0.24" cx="20" cy="28" rx="20" ry="4" fill="#0000C6"></ellipse><path d="M17.6603 12.9585C16.2508 12.9585 16.1283 12.2997 16.1283 12.1924H14.5962C14.5962 12.8972 15.1018 14.1458 16.8943 14.4292V15.2566H18.4264V14.4292C19.9585 14.1688 20.7245 13.1806 20.7245 12.1924C20.7245 11.3345 20.3261 9.89431 17.6603 9.89431C16.1283 9.89431 16.1283 9.41171 16.1283 9.12828C16.1283 8.84484 16.6645 8.36224 17.6603 8.36224C18.6562 8.36224 18.7251 8.8525 18.7328 9.12828H20.2649C20.2545 8.60642 20.0668 8.10363 19.7327 7.70265C19.3985 7.30167 18.9378 7.02639 18.4264 6.9221V6.06414H16.8943V6.89912C15.3622 7.15191 14.5962 8.14009 14.5962 9.12828C14.5962 9.98624 14.9945 11.4264 17.6603 11.4264C19.1924 11.4264 19.1924 11.9473 19.1924 12.1924C19.1924 12.4375 18.7175 12.9585 17.6603 12.9585Z" fill="#0000C6"></path><path d="M10 3V4.53207H11.5321V17.5547C11.5321 17.7578 11.6128 17.9527 11.7564 18.0963C11.9001 18.24 12.0949 18.3207 12.2981 18.3207H23.0226C23.2258 18.3207 23.4206 18.24 23.5643 18.0963C23.7079 17.9527 23.7886 17.7578 23.7886 17.5547V4.53207H25.3207V3H10ZM22.2566 16.7886H13.0641V4.53207H22.2566V16.7886Z" fill="#0000C6"></path><path fill-rule="evenodd" clip-rule="evenodd" d="M26.757 15.4481V6.83017H27.7146V15.4481H30L27.2358 20.2358L24.4716 15.4481H26.757Z" fill="#0000C6"></path></svg>